<svg width="468" height="456" viewBox="0 0 468 456" fill="none" xmlns="http://www.w3.org/2000/svg">
<path d="M0.289993 8.73003C2.93999 2.52003 7.64999 0.130035 14.35 0.340035C24.23 0.640035 34.13 0.410036 44.02 0.420036C69.6 0.460036 87.32 13.33 95.28 37.54C116.8 102.97 138.38 168.37 159.79 233.84C160.96 237.41 162.36 238.45 166.11 238.04C188.17 235.59 210.26 233.41 232.33 231.13C254.41 228.85 276.48 226.55 298.56 224.25C323.81 221.63 349.06 219 374.31 216.39C380.81 215.72 387.45 215.69 393.73 213.84C408.3 209.56 416.89 199.56 420.41 184.9C426.26 160.55 432.55 136.29 437.98 111.84C440.41 100.89 442.59 89.85 444.81 78.83C445.36 76.13 446.14 73.51 447.99 71.38C451.19 67.7 456.53 66.72 460.88 68.95C465.95 71.54 468.62 76.58 467.4 81.69C461.92 104.72 456.46 127.75 450.85 150.75C447.14 165.93 444.25 181.33 439.53 196.25C432.46 218.62 411.9 234.7 388.38 237.06C354.35 240.46 320.35 244.2 286.33 247.74C252.76 251.23 219.19 254.65 185.62 258.12C178.36 258.87 171.11 259.72 163.87 260.56C162.73 260.69 161.59 260.56 160.8 261.97C151.92 277.79 153.74 294.92 168.25 304.92C173.59 308.6 179.71 309.42 186.07 309.41C253.64 309.37 321.21 309.38 388.78 309.38C391.06 309.38 393.31 309.4 395.57 309.94C400.77 311.17 404.1 315.08 404.13 320.25C404.16 325.57 400.63 329.93 395.35 330.89C393.72 331.19 392.02 331.16 390.35 331.16C322.02 331.17 253.69 331.21 185.36 331.15C147.15 331.12 122.68 293.94 138.12 259C141.27 251.86 141.59 245.75 139.08 238.31C117.29 173.58 95.9 108.72 74.39 43.9C69.43 28.97 60.13 22.21 44.53 22.17C34.49 22.15 24.44 22.04 14.4 22.21C7.60999 22.33 2.61999 20.01 0.269989 13.29C0.289989 11.78 0.289993 10.25 0.289993 8.73003Z" fill="black"/>
<path d="M149.67 357.74C122.75 357.61 100.71 379.66 100.71 406.72C100.71 433.63 122.44 455.31 149.44 455.33C176.24 455.35 198.22 433.47 198.3 406.71C198.38 380.09 176.31 357.87 149.67 357.74ZM148.94 433.55C133.99 433.32 122.32 421.26 122.5 406.23C122.68 391.38 134.98 379.28 149.69 379.5C164.48 379.72 176.62 392.06 176.53 406.75C176.42 421.74 164.02 433.78 148.94 433.55Z" fill="black"/>
<path d="M355.55 357.74C328.81 357.73 306.9 379.66 306.84 406.48C306.78 433.68 328.53 455.41 355.75 455.34C382.68 455.27 404.3 433.5 404.24 406.51C404.18 379.68 382.28 357.75 355.55 357.74ZM355.33 433.55C340.46 433.44 328.32 421.24 328.44 406.5C328.55 391.77 340.85 379.51 355.52 379.5C370.33 379.49 382.96 392.25 382.65 406.91C382.33 421.85 370.21 433.66 355.33 433.55Z" fill="black"/>
</svg>
