<svg width="515" height="304" viewBox="0 0 515 304" fill="none" xmlns="http://www.w3.org/2000/svg">
<path d="M21.8606 153.165C19.2906 152.995 16.9006 152.005 16.5806 149.355C15.1906 137.715 13.2806 134.985 3.50056 131.135C2.09056 130.575 -0.0394447 129.045 0.000555279 128.045C0.220555 123.135 3.81056 120.525 7.81056 118.425C12.9006 114.615 18.8706 115.485 24.6006 115.485C84.9706 115.415 145.351 115.445 205.721 115.445C208.791 115.445 211.871 115.265 214.931 115.425C222.721 115.845 225.881 112.325 225.841 104.535C225.701 81.7353 225.681 58.9353 225.861 36.1353C225.911 30.0853 225.321 23.6353 231.611 19.6653C248.721 15.8753 266.011 13.1754 283.511 11.7354C293.281 12.0554 293.681 19.1254 293.741 26.1754C293.941 49.6454 293.791 73.1053 293.821 96.5753C293.841 115.445 293.841 115.445 312.951 115.455C358.631 115.475 404.321 115.375 450.001 115.535C457.461 115.565 465.421 115.095 468.711 124.275C470.751 127.705 478.221 127.275 476.771 131.885C475.121 137.175 469.071 133.365 465.221 133.565C455.271 134.075 445.351 128.895 434.761 132.885C443.461 137.845 438.481 147.955 443.811 153.805C445.601 155.425 440.091 158.575 445.671 160.155C448.781 161.035 453.931 162.395 454.211 167.715C447.471 169.135 440.741 170.545 434.001 171.965C429.911 171.645 426.151 169.895 420.971 169.495C426.211 172.745 431.171 173.665 436.271 174.175C437.401 174.835 438.531 175.495 439.651 176.155C439.491 180.565 435.911 180.195 433.091 180.735C425.401 182.225 417.681 183.015 409.801 182.985C375.421 182.835 341.041 182.885 306.651 182.945C294.391 182.965 293.551 183.945 293.431 196.455C293.191 220.895 293.971 245.345 293.041 269.775C292.701 271.455 292.011 272.975 290.771 274.175C287.561 275.665 284.161 274.905 280.811 274.915C279.441 274.855 280.641 276.645 280.441 275.305C283.381 274.895 286.321 275.115 289.271 275.285C291.461 276.415 292.121 277.945 290.551 280.065C272.081 282.305 253.621 284.555 235.151 286.795C229.971 288.445 227.431 285.985 226.471 281.175C225.661 277.145 225.791 273.055 225.811 268.975C225.931 240.775 225.471 212.565 226.111 183.575C222.371 185.085 218.521 185.385 214.661 185.315C171.421 184.545 128.131 187.345 84.9406 183.325C75.4806 182.445 75.2206 182.555 73.7706 176.535C74.4306 176.735 75.0106 176.595 75.5206 176.135C76.6406 169.885 72.2806 171.585 69.0206 171.685C66.3806 170.315 63.8806 176.265 61.1806 171.845C58.5906 167.065 61.2406 163.965 64.9806 161.885C70.7406 158.685 76.6505 155.635 80.9305 154.415C69.5005 156.565 57.7506 167.505 42.6406 163.815C45.9606 154.505 56.2206 155.265 63.6106 149.205C50.8406 146.105 41.7706 157.585 30.4606 155.465C29.8006 150.165 35.1906 152.515 36.5306 150.405C32.0606 151.875 27.1806 153.735 21.8606 153.165Z" fill="#D0162D"/>
<path d="M468.701 124.285C464.451 118.995 458.541 118.755 452.431 118.765C402.341 118.795 352.251 118.455 302.161 119.015C292.311 119.125 290.441 116.005 290.611 107.045C291.141 78.8454 290.591 50.6154 290.961 22.4054C291.051 15.8054 289.241 13.0054 282.591 13.9954C285.811 7.40535 290.471 11.6054 294.681 12.3754C301.701 13.3354 308.181 7.27536 315.401 10.7654C316.351 32.0654 315.161 53.4154 315.971 74.5254C320.001 75.4354 322.041 73.2854 324.271 71.9254C347.851 57.5054 372.021 44.0954 395.571 29.6254C401.111 26.2254 406.781 23.1954 412.931 21.0654C418.451 22.3654 423.951 24.4753 429.651 22.0053C433.851 20.1953 437.961 19.3853 442.041 22.2253C418.581 36.5553 394.841 50.3953 371.401 64.7453C357.771 73.0854 344.071 81.3354 330.481 89.7454C326.171 92.4154 322.101 95.6854 316.851 96.3554C318.371 97.2354 319.831 95.6554 321.381 95.9154C345.851 100.075 364.441 86.8154 383.421 74.9454C411.671 57.2754 440.411 40.3954 468.741 22.8554C481.661 21.5854 490.321 31.9953 502.341 34.3353C500.931 38.0153 498.141 37.1853 496.311 36.9153C489.971 35.9553 495.401 42.8953 491.661 43.4753C492.741 46.9953 495.101 44.6954 496.541 44.2154C499.431 43.2354 501.431 42.4254 499.491 46.7354C475.711 59.7854 453.161 74.9454 430.651 87.0854C431.851 87.0254 435.741 84.2853 435.961 90.2553L436.061 90.0554C430.241 94.3754 422.771 92.5454 416.541 95.2954C412.641 95.2254 408.241 92.9853 405.961 98.3453C412.071 100.365 419.001 99.7553 425.831 99.7553C438.481 99.7553 449.431 103.895 458.661 112.535C465.021 113.895 474.001 113.035 468.701 124.285Z" fill="white"/>
<path d="M233.351 20.7253C228.731 23.0053 229.431 27.2353 229.431 31.2453C229.461 57.7653 229.391 84.2953 229.571 110.815C229.601 115.965 228.951 118.895 222.531 118.865C150.961 118.575 79.3906 118.535 7.82056 118.435C7.93056 116.325 8.62056 114.155 10.6306 113.545C17.0306 111.615 21.4406 107.815 24.1806 101.675C26.0706 97.4253 31.6206 99.4953 34.4606 96.5553C56.6506 94.0853 78.9806 96.6153 101.801 95.1653C88.6706 85.0153 73.2706 79.7853 61.1606 69.4053C66.6606 67.4853 72.1606 65.5553 77.6506 63.6353C81.6506 63.4053 84.8506 65.4253 87.9806 67.4553C101.081 75.9853 115.071 83.0153 128.201 91.4753C133.651 94.9953 139.471 95.6653 145.701 95.7753C152.641 95.8953 159.771 94.6653 165.361 96.6253C144.491 83.6553 121.751 70.7753 99.4606 57.1453C97.4606 55.9253 95.0206 55.3253 93.8206 53.0153C109.221 51.6053 122.181 41.4453 137.811 40.8353C143.501 38.9053 147.541 42.6353 151.781 45.1353C169.261 55.4453 186.541 66.0953 206.301 76.9153C204.581 60.0653 208.631 44.4753 203.671 29.0553C202.731 28.0053 202.001 26.8453 201.891 25.3953C203.261 22.5053 206.721 21.7553 208.371 19.1453C215.951 20.3653 221.761 12.9853 229.471 14.8153C230.271 15.7153 231.191 16.4953 231.961 17.4253C232.711 18.4053 233.271 19.4653 233.351 20.7253Z" fill="white"/>
<path d="M73.7605 176.535C73.3405 184.465 79.5705 180.755 82.4405 180.775C127.111 181.145 171.781 181.445 216.451 180.995C226.571 180.895 230.171 182.905 229.811 193.925C228.891 222.135 229.511 250.385 229.471 278.625C229.461 282.775 228.781 287.175 235.161 286.795C230.351 293.075 223.881 288.575 218.421 288.655C215.491 288.695 212.091 288.925 208.951 288.395C204.891 285.035 206.031 280.325 205.981 276.075C205.811 261.495 205.761 246.905 205.981 232.315C206.081 225.945 205.281 223.235 198.291 227.445C173.851 242.175 149.271 256.675 124.431 270.695C120.871 272.705 123.651 278.405 118.431 277.665C113.511 277.555 108.381 276.505 103.721 277.555C97.6005 278.925 93.2605 277.185 88.9605 272.805C96.6005 268.165 106.201 266.165 110.351 257.035C111.821 251.885 117.171 253.875 120.241 251.655C144.071 239.215 166.301 224.085 189.601 210.755C193.981 208.255 198.031 205.025 203.511 204.955C169.931 198.355 146.681 218.165 122.571 235.785C120.341 237.895 118.241 238.505 116.531 235.215C114.991 234.135 115.531 232.785 116.331 231.715C122.511 223.385 116.821 222.995 110.521 222.975C100.181 222.945 89.8405 222.925 79.5005 222.895C84.9005 212.555 95.4305 209.805 103.691 205.125C94.3505 205.385 83.6405 205.275 72.9305 205.285C68.1805 205.285 63.3605 205.565 59.1705 202.635C62.5505 196.755 65.6905 190.775 67.2905 184.125C68.6405 182.855 70.5405 182.065 70.9405 179.965C71.3905 178.425 71.4905 176.585 73.7605 176.535Z" fill="white"/>
<path d="M288.641 274.255C289.371 273.495 290.111 272.735 290.841 271.975C292.571 245.525 291.171 219.055 291.571 192.595C291.741 181.115 291.621 181.105 303.191 181.095C343.371 181.065 383.551 181.125 423.701 181.065C427.971 180.735 432.451 180.845 431.221 186.865C430.531 190.225 432.231 189.405 433.671 189.135C437.951 188.315 441.671 189.915 445.341 191.605C448.331 192.985 453.351 193.475 449.591 198.885C451.211 199.485 453.281 198.625 454.541 200.395C457.321 200.755 460.411 199.675 462.751 202.125C461.581 204.095 459.591 204.795 457.561 204.865C443.821 205.385 430.071 205.865 416.891 204.615C427.371 210.695 439.191 215.985 448.371 225.265C449.801 227.545 451.451 229.925 447.301 231.125C444.481 231.935 441.831 232.955 439.841 235.225C427.171 230.855 416.151 223.215 405.511 215.635C391.411 205.585 376.511 203.405 359.761 205.675C381.911 217.855 401.441 234.095 425.751 241.675C426.261 251.395 419.171 249.375 413.511 249.555C409.481 251.005 405.411 252.305 401.251 253.525C401.991 255.485 404.131 256.095 405.351 257.605C406.701 257.625 408.041 257.635 409.391 257.655C410.171 261.345 406.981 261.135 405.121 261.435C402.191 261.915 400.421 263.415 399.111 265.825C395.971 263.935 392.551 263.545 388.981 263.955C388.151 264.545 387.231 264.735 386.231 264.525C362.641 251.505 340.051 236.715 314.631 222.875C316.731 239.675 314.521 254.715 315.781 269.765C313.241 276.735 307.671 273.995 303.081 273.805C305.421 274.545 308.101 274.615 310.661 275.285C311.411 275.955 311.701 276.785 311.461 277.775C304.481 278.455 297.371 277.875 290.561 280.015C290.821 278.145 290.691 276.445 288.581 275.645C287.871 275.285 287.651 274.955 287.901 274.655C288.131 274.405 288.381 274.255 288.641 274.255Z" fill="white"/>
<path d="M118.411 277.665C117.091 272.975 119.481 270.715 123.391 268.435C151.501 252.055 179.461 235.435 208.941 218.015C208.941 242.495 208.941 265.435 208.941 288.385C194.161 290.315 180.131 295.945 164.591 294.695C151.841 293.675 139.731 299.835 127.311 303.265C125.551 299.195 133.181 297.635 129.391 293.565C127.371 287.015 133.921 289.615 136.021 287.355C132.151 288.515 128.081 289.125 125.431 292.595C121.051 293.245 116.741 294.475 112.261 294.405C110.201 294.355 107.881 294.265 108.721 291.335C108.971 290.475 111.051 290.265 112.071 289.475C115.891 286.495 120.371 283.775 118.411 277.665Z" fill="#27346E"/>
<path d="M412.941 21.0653C404.171 29.2953 393.131 34.0253 383.021 40.1553C360.351 53.9153 337.431 67.2453 312.721 81.8653C312.721 70.4753 312.721 60.5553 312.721 50.6353C312.721 40.4153 312.721 30.2053 312.731 19.9853C312.731 16.6553 311.991 13.0953 315.421 10.7653C320.761 10.5253 326.101 10.2953 331.441 10.0553C342.331 4.99526 353.861 8.85527 365.031 7.74527C367.051 7.54527 368.571 9.40526 368.941 11.6453C365.981 17.7353 358.471 11.3853 355.221 16.6253C355.541 17.3753 356.021 17.9753 356.711 18.4053C375.491 18.5553 394.051 23.1853 412.941 21.0653Z" fill="#27346E"/>
<path d="M468.751 22.8553C469.381 27.5653 465.101 28.1653 462.501 29.7453C427.051 51.3653 391.431 72.6953 356.071 94.4553C350.311 98.0053 344.521 97.8253 338.431 97.8053C330.931 97.7853 323.441 97.8053 315.761 97.8053C315.631 94.3253 318.711 93.8053 320.761 92.5553C357.401 70.2853 394.091 48.1153 430.691 25.7853C434.291 23.5853 437.771 21.8353 442.061 22.2253C450.951 22.4353 459.851 22.6453 468.751 22.8553Z" fill="#D1192D"/>
<path d="M204.521 26.6653C209.511 26.1553 208.801 29.7353 208.801 32.7053C208.821 48.3453 208.811 63.9853 208.811 81.4253C184.451 67.4953 161.121 54.1653 137.801 40.8353C146.351 33.7953 157.201 32.2853 167.291 29.5253C180.891 25.8053 194.191 20.6653 208.361 19.1453C209.431 24.1753 206.161 24.9353 202.381 25.2053C197.401 29.6153 190.271 27.3053 184.981 30.7653C191.141 27.6453 198.081 28.3553 204.521 26.6653Z" fill="#27346E"/>
<path d="M435.971 90.2354C434.251 86.5354 430.041 89.0854 426.941 86.8954C448.561 73.8954 469.691 61.2753 490.711 48.4653C493.591 46.7053 496.521 46.9953 499.501 46.7253C504.181 48.6853 508.821 50.4454 512.711 54.1254C517.491 58.6454 513.681 61.9553 510.891 63.3553C505.411 66.1053 498.871 66.3454 497.361 74.6154C497.091 76.0954 488.921 76.1853 484.391 76.8453C482.861 77.0653 480.961 75.1853 480.671 79.0453C480.411 82.4253 482.251 80.7154 483.191 80.9954C484.451 81.3754 486.181 81.1353 486.311 82.9153C486.461 84.9253 484.881 85.4553 483.221 86.1953C475.071 89.8153 466.461 87.4153 458.121 88.4053C450.751 89.2753 443.101 86.5954 435.971 90.2354Z" fill="#28346D"/>
<path d="M93.8206 53.0053C97.0006 52.9553 99.7706 54.1453 102.431 55.7453C123.691 68.4953 144.971 81.2353 166.231 93.9753C167.341 94.6353 168.701 95.1653 168.281 97.4753C149.961 98.3153 131.901 100.075 115.541 87.2953C103.861 78.1753 90.3406 71.4253 77.6406 63.6153C82.1106 58.6753 87.6406 55.3453 93.8206 53.0053Z" fill="#D01A2E"/>
<path d="M425.741 241.715C419.081 242.775 413.321 241.135 407.501 237.495C389.431 226.205 371.041 215.435 352.361 204.215C376.921 197.085 417.191 211.575 439.841 235.265C439.881 235.875 439.901 236.475 439.881 237.085C438.261 240.405 434.691 240.215 431.931 241.495C429.871 241.565 427.811 241.635 425.741 241.715Z" fill="#D0192E"/>
<path d="M61.1506 69.3853C71.6206 71.1053 79.1406 78.5253 88.0206 83.3053C95.3706 87.2653 102.351 91.9053 109.281 97.2053C84.2006 96.9753 59.3106 99.8852 34.4506 96.5352C33.7206 94.4252 42.1606 92.4753 34.6306 90.0153C34.5506 89.9853 36.8306 88.1252 38.3306 87.5652C41.4606 83.6952 46.1906 82.9453 49.8706 81.4253C44.7106 80.8153 37.7506 91.1353 33.1606 79.4953C42.4806 76.1253 51.8106 72.7553 61.1506 69.3853Z" fill="#28356D"/>
<path d="M448.371 225.295C434.931 219.885 423.541 211.015 411.421 202.145C428.531 202.145 445.641 202.145 462.751 202.145C466.691 203.355 469.801 203.875 468.301 210.175C466.991 215.655 464.211 214.695 460.911 214.895C460.581 214.915 460.231 214.945 459.911 214.885C451.551 213.385 446.781 215.835 448.371 225.295Z" fill="#2A356F"/>
<path d="M59.1606 202.645C75.7306 202.645 92.3106 202.645 111.241 202.645C99.4706 210.155 89.4706 216.535 79.4806 222.905C78.7706 222.995 78.0506 223.085 77.3406 223.175C71.3006 224.735 67.5506 218.015 61.7006 218.875C59.8906 213.615 63.8506 207.455 59.1606 202.645Z" fill="#29356E"/>
<path d="M444.141 180.085C439.061 183.435 433.281 181.665 427.841 182.305C386.281 182.295 344.721 182.495 303.161 182.085C294.681 181.995 292.091 184.415 292.291 192.915C292.841 216.015 292.511 239.125 292.431 262.235C292.421 265.525 293.521 269.085 290.851 271.985C290.741 244.135 290.881 216.275 290.341 188.435C290.191 180.795 293.901 180.455 299.691 180.485C334.081 180.655 368.481 180.545 402.871 180.685C415.351 180.735 427.751 180.615 439.651 176.165C442.171 176.295 443.261 178.075 444.141 180.085Z" fill="#E8B0B8"/>
<path d="M99.9305 255.395C98.0705 256.015 96.2405 256.825 94.3305 257.215C90.8505 257.945 86.3905 263.265 84.1605 258.295C82.1905 253.895 88.3005 252.825 91.7505 251.285C101.911 245.575 111.931 239.515 123.901 238.195C127.321 239.975 128.081 242.365 125.611 245.505C117.051 248.815 109.621 255.025 99.9305 255.395Z" fill="#D03035"/>
<path d="M452.411 98.3053C440.711 95.2153 428.981 99.8853 417.271 98.1253C415.471 97.8553 412.841 99.0953 412.601 96.0453C412.541 95.3253 414.421 94.4553 415.401 93.6553C421.381 87.2953 429.251 91.6553 436.061 90.0453C440.231 92.9853 445.341 92.7753 449.991 94.0753C452.551 94.7753 453.221 95.9753 452.411 98.3053Z" fill="#303B76"/>
<path d="M376.541 10.6753C380.761 5.75532 384.811 16.3553 389.031 10.8153C392.821 10.7653 396.611 10.7153 400.401 10.6653C401.451 15.8053 397.901 11.8153 397.451 13.2953C401.471 14.1053 406.591 12.5153 411.341 14.1953C411.641 14.3553 412.011 14.4453 412.231 14.6853C412.541 15.0153 412.751 15.4353 413.011 15.8253C405.281 17.5953 397.481 15.9553 389.721 16.2553C378.691 16.6853 367.471 14.1653 356.701 18.4053C355.181 18.4653 353.651 18.5353 352.131 18.5953C352.101 12.3353 356.821 13.8253 360.451 13.5153C365.901 13.0353 371.801 15.1053 376.541 10.6753Z" fill="#2A3D7D"/>
<path d="M374.581 4.8553C368.591 6.8953 362.491 6.81531 356.341 5.84531C354.931 5.08531 354.991 4.0253 355.731 2.8253C360.191 1.9153 364.631 0.785298 369.131 0.165298C372.351 -0.274702 375.781 -0.1747 374.581 4.8553Z" fill="#303770"/>
<path d="M61.7006 218.875C67.9806 216.435 72.1006 221.835 77.3406 223.175C70.5606 223.595 65.4406 230.705 56.2206 228.695C60.8006 224.745 64.5006 222.905 69.0406 222.185C66.8306 219.705 63.0806 222.015 61.7006 218.875Z" fill="#4C508B"/>
<path d="M436.261 174.185C431.081 179.065 426.281 172.245 421.211 173.705C420.891 172.495 420.671 171.245 420.231 170.065C419.271 167.475 421.451 168.195 422.341 168.275C426.481 168.645 431.341 166.935 433.991 171.975C434.751 172.715 435.501 173.445 436.261 174.185Z" fill="#EBADA8"/>
<path d="M388.831 266.025C389.771 269.515 394.731 266.235 395.521 269.985C394.931 272.385 392.881 273.085 390.921 273.875C385.821 270.675 379.811 271.415 374.291 270.015C377.361 262.225 383.581 265.895 388.831 266.025Z" fill="#2C3276"/>
<path d="M243.421 12.3753C247.981 12.0653 252.541 11.7653 257.091 11.4553C257.221 11.9053 257.351 12.3553 257.481 12.8053C248.701 14.9353 239.921 17.0653 231.141 19.1853C229.091 18.2853 229.261 16.5453 229.461 14.7953C233.921 12.8353 239.151 15.3753 243.421 12.3753Z" fill="#CF3141"/>
<path d="M320.731 272.055C324.371 276.385 329.491 272.475 333.571 274.355C334.241 274.695 334.461 275.045 334.241 275.385C334.021 275.725 333.791 275.895 333.571 275.895C326.191 276.415 318.991 279.075 311.461 277.825C311.511 277.225 311.401 276.655 311.141 276.125C311.131 271.135 316.271 273.755 318.081 271.455C319.051 271.255 319.931 271.485 320.731 272.055Z" fill="#47528B"/>
<path d="M276.251 10.4452C271.571 11.1152 266.891 11.7752 261.171 12.5952C264.331 6.49525 270.291 10.9552 272.531 6.61523C273.741 6.53523 274.961 6.45524 276.181 6.37524C277.411 7.70524 277.411 9.06524 276.251 10.4452Z" fill="#CF2D35"/>
<path d="M355.731 2.82532C355.931 3.82532 356.131 4.83532 356.341 5.84532C350.201 5.91532 344.061 5.97532 337.921 6.04532C337.081 5.66532 336.811 5.32532 337.111 4.99532C337.391 4.68532 337.681 4.52531 337.991 4.52531C343.891 3.95531 349.811 3.39532 355.731 2.82532Z" fill="#32438C"/>
<path d="M333.561 275.885C333.601 275.375 333.601 274.865 333.571 274.345C340.891 273.685 348.111 269.385 355.551 273.785C348.221 274.485 340.891 275.185 333.561 275.885Z" fill="#62658A"/>
<path d="M126.641 294.475C126.051 293.925 125.461 293.385 124.871 292.835C127.431 285.405 133.701 287.275 140.061 285.815C136.821 290.695 130.201 287.735 129.381 293.575C128.471 293.875 127.561 294.175 126.641 294.475Z" fill="#5F74B1"/>
<path d="M337.981 4.52531C337.951 5.03531 337.921 5.53532 337.911 6.04532C335.101 6.24532 332.291 6.43531 329.481 6.63531C326.941 5.29531 323.181 7.88532 321.411 4.12532C323.401 3.48532 325.391 2.83531 327.371 2.19531C330.381 5.32531 334.451 3.71531 337.981 4.52531Z" fill="#283167"/>
<path d="M106.211 258.165C105.061 257.665 101.781 257.295 104.981 255.775C109.141 253.785 113.961 253.165 118.501 251.945C119.371 252.485 120.641 252.575 120.731 253.965C117.261 254.985 113.801 256.015 110.331 257.035C108.961 257.415 107.581 257.795 106.211 258.165Z" fill="#CC444F"/>
<path d="M276.251 10.4453C276.231 9.08525 276.201 7.72525 276.181 6.36525C278.901 6.20525 281.621 6.04525 284.341 5.88525C286.421 6.79525 289.761 4.56526 290.641 8.43526C285.841 9.10526 281.051 9.77525 276.251 10.4453Z" fill="#D46E76"/>
<path d="M395.151 162.085C389.301 163.825 383.371 164.245 375.171 162.325C383.131 158.265 389.081 159.245 395.151 162.085Z" fill="#DF5F68"/>
<path d="M421.431 165.375C417.641 164.545 413.851 163.705 410.071 162.875C414.791 158.755 418.401 161.615 421.431 165.375Z" fill="#DC6E71"/>
<path d="M249.391 280.395C253.191 278.015 256.861 274.055 261.941 279.525C257.301 279.845 253.351 280.115 249.391 280.395Z" fill="#F5B9B9"/>
<path d="M204.521 26.6653C197.791 29.4553 190.681 30.1953 183.291 29.8353C189.661 28.2853 196.031 26.7453 202.391 25.1953C203.101 25.6853 203.811 26.1753 204.521 26.6653Z" fill="#C0CFE8"/>
<path d="M120.731 253.975C119.991 253.305 119.241 252.625 118.501 251.955C121.231 250.395 126.691 251.325 124.541 245.335C126.061 243.395 125.901 241.425 124.651 239.445C125.751 235.125 121.641 237.545 120.441 236.215C119.241 233.345 120.871 231.935 123.111 230.575C137.311 221.995 151.101 212.645 165.761 204.925C177.941 198.515 191.521 203.745 205.071 204.105C186.101 215.635 167.251 227.365 148.121 238.625C139.101 243.915 130.761 250.475 120.731 253.975Z" fill="#D12030"/>
<path d="M386.201 263.435C380.941 264.285 375.691 265.145 370.431 265.995C353.521 265.155 337.121 268.505 320.741 272.045L319.971 271.935L319.211 272.075C317.021 273.305 316.191 271.505 315.121 270.245C311.841 269.805 311.931 267.535 311.941 264.965C312.031 250.015 311.981 235.075 311.981 218.965C319.481 221.115 324.971 225.645 330.801 229.205C349.321 240.535 369.041 249.925 386.201 263.435Z" fill="#27346E"/>
<path d="M376.541 10.6753C377.981 17.8353 372.421 13.5653 370.241 14.2553C364.331 16.1253 356.721 10.9153 352.131 18.5953C348.931 13.7453 352.541 12.9653 355.971 12.6453C360.301 12.2353 364.671 12.3153 369.031 12.1853C372.011 14.0253 373.191 6.93532 376.541 10.6753Z" fill="#283065"/>
</svg>
