<svg width="550" height="127" viewBox="0 0 550 127" fill="none" xmlns="http://www.w3.org/2000/svg">
<path d="M68.56 49.91C65.4 49.62 63.07 52.68 59.93 51.17C60.02 50.57 60.04 49.82 60.15 49.81C69.34 48.74 71.56 42.02 72.7 34.43C73.22 30.94 75.99 28.84 77.73 25.38C79.49 27.3 79.54 28.76 78.19 30.12C76.16 32.16 75.61 34.82 74.74 37.38C71.98 45.49 71.95 45.46 79.89 45.68C80.45 45.7 80.99 46.29 82.1 46.95C81.08 47.48 80.81 47.71 80.51 47.76C71.77 49.1 70.63 50.15 70.17 58.68C69.85 64.56 70.13 70.35 72.53 76.01C75.14 82.17 78.8 83.83 84.49 80.42C89.86 77.2 93.66 72.24 98.21 68.11C99.62 66.83 100.41 64.3 104.44 65.16C96.66 73.35 90.51 82.16 79.47 85.02C75.57 86.03 70.44 80.93 68.89 75.08C67.06 68.14 67.09 68.18 61.6 72.39C59.79 73.78 57.74 74.86 55.87 76.19C49.28 80.85 41.77 79.77 41.44 68.59C36.04 74.4 30.77 80.13 23.93 83.78C16.32 87.84 9.15001 83.29 11.32 75.09C13.1 68.37 9.43001 70.9 6.97001 71.09C3.94001 71.32 1.96001 69.94 0.770014 67.56C-0.119986 65.78 1.31001 64.39 2.63001 63.21C3.28001 62.63 3.89001 61.96 4.63001 62.95C4.94001 63.36 5.28002 64.19 5.08002 64.47C0.240015 71.51 8.00001 68.57 8.71001 68.25C15.53 65.12 14.81 69.49 14.82 73.76C14.83 76.99 13.28 81.32 17.3 82.89C20.8 84.25 24.02 81.25 26.36 79.09C30.65 75.15 36.33 72.58 38.99 66.87C39.66 65.43 41.18 64.04 43.2 64.75C45.18 65.45 44.25 67.27 44.32 68.59C44.74 76.93 46.88 78.11 54.41 74.49C64.83 69.49 69.66 61.45 68.56 49.91Z" fill="#3C3C3B"/>
<path d="M364.93 15.34C364.18 17.24 363.01 16.95 362.03 16.99C350.98 17.44 339.93 17.89 328.87 18.28C325.24 18.41 322.94 18.95 322.11 23.63C320.22 34.34 318.91 45.13 317 55.81C315.58 63.78 315.7 71.8 315.03 79.72C314.04 91.36 315.13 103.28 319.13 114.55C319.75 116.3 319.83 117.77 319.43 119.72C314.85 115.95 314.43 110.31 313.65 105.56C310.95 88.97 312.26 72.35 314.4 55.69C315.84 44.46 317.47 33.32 319.73 22.24C320.4 18.96 317.79 19.47 316.04 19.64C306.62 20.58 297.18 21.46 287.81 22.82C285.5 23.16 283.48 23.72 281.12 22.68C286.37 18.41 356.2 13.52 364.93 15.34Z" fill="#3C3C3B"/>
<path d="M42.23 62.48C45.03 59.92 43.48 56.73 46.42 56.08C46.76 56 47.75 56.94 47.69 57.23C47.21 59.35 46.63 61.49 42.23 62.48Z" fill="#3C3C3B"/>
<path d="M544.48 65.71C540.35 68.89 535.68 71.33 530.78 72.92C524.4 75 518.02 78.44 510.96 74.03C508.32 72.38 508.81 70.46 509.18 68.7C509.88 65.29 511.68 68.48 512.97 68.43C515.54 68.34 518.11 68.41 520.69 68.45C523.13 68.48 525.83 68.48 525.62 65.13C525.46 62.61 523.63 60.87 520.96 60.81C518.91 60.76 516.94 61.07 514.82 61.7C507.23 63.97 502.92 70.74 496.31 74.28C492.37 76.39 488.37 79.39 484.31 76.25C479.74 72.72 476.98 67.82 479.38 61.49C482.03 54.49 483.76 47.22 485.45 39.93C486.14 36.92 485.12 33.55 483.38 32.83C479.79 31.35 478.99 35.38 478.26 37.73C475.87 45.41 475.11 53.37 475.6 61.5C470.18 60.06 466.4 60.86 463.04 65.84C459.78 70.66 455.16 74.73 449.76 77.45C445.92 79.39 442.13 82.37 437.84 77.81C433.77 73.48 431.92 69.13 434.32 63.13C439.1 51.17 444 39.19 444.69 26.06C444.92 21.71 443.83 16.79 439.74 16.28C436.15 15.83 434.24 20.6 433.05 24.35C429.43 35.76 428.1 47.39 429.2 59.32C429.43 61.86 429.62 64.5 427 66.19C422.1 69.35 417.25 72.58 411.5 74.08C407.96 75 405.96 73.98 406.05 70.04C406.1 67.69 406.07 65.33 406.14 62.98C406.16 62.3 407.27 60.92 406.34 61.07C401.77 61.76 396.57 57.81 392.66 62.3C387.84 67.84 381.47 70.53 374.95 73.14C369.3 75.41 363.7 77.63 357.48 74.92C352.59 72.79 352.03 70.12 355.92 66.46C360.56 62.09 365.49 62.28 371.12 66.58C367.47 59.09 358.14 59.17 352.88 65.68C349.33 70.06 350.36 74.73 355.76 76.62C358.45 77.56 361.26 78.14 364.53 77.89C372.99 77.25 380.13 73.52 387.53 70.16C389.35 79.76 391.44 79.77 403.1 70.12C403.63 75.31 406.87 76.52 411.46 76.25C416.54 75.95 420.9 73.31 424.51 70.63C429.22 67.13 430.07 69.15 431.75 72.98C436.18 83.03 440.74 84.66 450.41 79.81C453 78.51 455.54 76.97 457.79 75.16C459.32 73.92 460.39 73.72 461.09 75.51C463.38 81.36 466.68 78.29 469.46 76.35C472.21 74.43 474.23 71.65 475.99 68.5C483 85.19 491.97 82.03 505.97 70.07C506.97 74.25 509.25 76.45 513.63 77.81C517.49 79.02 520.73 77.87 523.94 77.31C533.23 75.68 541.46 71.41 549.14 65.24C547.03 64.36 545.85 64.65 544.48 65.71ZM523.28 63.86C520.53 66.44 520.53 66.44 511.87 65.34C515.7 63.57 519.18 62.57 523.28 63.86ZM392.7 74.85C391.82 74.84 390.93 74.81 390.7 73.8C389.9 70.36 392.3 67.86 393.58 65.13C394.61 62.95 397.09 62.19 399.42 62.13C401.07 62.09 401.97 63.39 402.13 64.63C402.32 67.69 395.38 74.87 392.7 74.85ZM439.07 18.35C445.37 24.34 441.25 31.12 440.17 37.25C438.79 45.07 435.87 52.59 432.49 59.85C430.43 46.66 432.26 29.16 439.07 18.35ZM473.84 68C471.61 70.54 469.24 72.98 466.72 75.24C464.4 77.32 463.23 75.38 462.78 73.47C461.97 70.06 467.56 63.34 470.99 63.31C472.51 63.2 474.27 63.13 474.81 64.73C475.12 65.63 474.55 67.19 473.84 68ZM482.46 35.53C482.46 42.2 481.26 48.74 478.4 56.1C477.45 48.05 480.4 41.93 482.46 35.53Z" fill="#3C3C3B"/>
<path d="M297.97 97.42C287.75 112.59 267.5 111.81 256.03 99.48C248.31 91.18 244.14 81.17 238.99 71.44C246.76 69.11 251.24 66 257.59 57.89C267.33 45.46 271.13 31.39 266.89 16.05C262.65 0.719957 252.41 -0.500033 241.18 7.30997C233.79 12.45 229.09 19.73 222.9 27.99C223.86 18.01 224.68 9.54996 225.5 1.07996C224.89 0.919956 224.27 0.759976 223.66 0.599976C223.11 2.10998 222.19 3.58997 222.06 5.12997C220.68 21.54 219.08 37.94 218.23 54.38C217.34 71.42 218.43 88.47 219.51 105.49C219.91 111.73 221.14 117.94 222.28 124.11C222.43 124.91 222.58 127.3 224.51 126.73C225.79 126.35 225.57 125.13 225.24 123.63C221.64 107.49 221.84 90.97 220.67 74.59C219.98 64.98 221.93 55.52 221.97 45.96C222.04 30.48 234.18 12.45 248.69 6.38998C253.82 4.24998 258.67 4.69997 261.4 9.71997C273.26 31.53 258.88 59.42 243.24 67.43C238.74 69.74 235.95 68.97 233.6 64.85C231.9 61.87 229.67 59.47 226.47 57.97C225.31 57.43 224.52 56.4 223.16 57.63C222.04 58.64 221.52 60.04 222.14 61.06C223.95 64.06 224.42 68.79 228.21 69.52C236.81 71.17 239.12 78.24 242.66 84.41C244.83 88.2 246.49 92.38 249.17 95.76C258.84 107.96 269.98 115.98 289.54 108.3C295.96 105.78 299.31 102 299.7 96.7C299.06 96.95 298.25 97.01 297.97 97.42ZM226.26 61.36C228.61 63.19 231.4 64.58 232.51 68.19C227.62 67.98 227.28 64.3 226.26 61.36Z" fill="#3C3C3B"/>
<path d="M193.61 67.91C194.61 58.59 192.17 49.44 192.18 40.04C192.19 32.4 190.91 24.66 188.53 17.24C187.72 14.7 186.36 12.51 183.78 12.1C181.39 11.72 180.17 14.26 178.97 15.82C177.49 17.76 176.52 20.18 175.72 22.52C171.26 35.46 166.67 48.37 162.65 61.45C160.68 67.87 157.5 70.99 150.5 69.81C146.37 69.12 142.12 70.09 137.88 68.67C135.83 67.98 132.64 67.33 129.99 70.41C138.45 71.59 146.12 72.79 153.96 72.29C156.87 72.1 158.57 72.6 157.05 76.18C151.75 88.61 146.64 101.16 139.37 112.59C137.34 115.79 134.76 118.79 131.43 121.26C127.12 124.46 124.19 120.6 119.54 119.74C121.46 123.23 122.83 124.9 126.16 125.09C135.09 125.62 138.31 118.66 142.16 112.99C149.68 101.91 154.61 89.53 159.14 76.98C159.91 74.85 160.67 72.15 164.24 72.22C171.66 72.36 179.11 72.71 186.47 71.04C189.92 70.26 191.29 71.62 191.23 75.42C191.15 81.17 190.36 87.03 192.39 92.71C194.46 87.06 193.57 81.21 193.6 75.47C193.62 71.55 194.58 69.99 198.93 69.5C204.85 68.84 211.16 68.76 216.26 64.34C208.86 65.52 201.46 66.68 193.61 67.91ZM188.51 68.54C181.15 69.89 173.75 69.63 166.35 69.75C163.26 69.8 162.14 69.22 163.42 65.74C168.51 51.98 173.32 38.12 178.22 24.29C179.47 20.76 180.63 17.18 183.87 14.79C189.15 22.26 188.28 31.12 189.54 39.31C190.85 47.81 189.2 56.64 191.06 65.24C191.46 67.06 190.9 68.11 188.51 68.54Z" fill="#3C3C3B"/>
</svg>
