<svg width="488" height="254" viewBox="0 0 488 254" fill="none" xmlns="http://www.w3.org/2000/svg">
<path d="M457.742 153.038C466.022 155.618 469.952 162.358 473.502 169.458C470.682 172.588 470.302 172.568 461.672 168.878C457.672 166.908 453.602 161.168 452.612 172.048C451.992 178.828 449.592 187.148 441.332 190.548C439.042 191.538 436.712 191.608 434.352 190.898C430.132 184.708 422.862 186.698 417.122 184.568C415.942 183.788 414.942 182.818 414.082 181.708C409.892 175.738 404.152 171.568 398.022 167.808C397.122 167.828 396.302 167.668 395.482 167.378C388.222 168.968 381.052 171.158 373.582 168.228C371.762 167.508 368.882 167.938 367.942 166.488C364.442 161.078 359.382 162.868 355.942 163.108C364.912 169.068 378.062 167.298 387.842 174.848C390.552 175.938 393.532 176.378 396.032 177.888C399.272 179.848 401.982 182.218 398.622 186.328C395.802 187.858 392.842 187.748 389.832 187.148C376.202 185.988 362.562 184.398 348.922 184.258C315.112 183.918 281.302 183.888 247.502 184.298C222.162 187.448 196.622 189.218 171.192 189.808C135.782 190.628 102.052 198.108 68.6217 208.658C59.3117 211.598 50.0317 214.318 41.6217 219.408C39.8717 217.938 37.0217 216.758 36.5617 214.958C34.5017 206.928 30.9917 211.158 27.5617 213.508C21.0717 216.498 14.1517 215.038 8.17171 213.248C-2.04829 210.198 -0.338293 201.298 1.06171 193.238C9.40171 183.318 19.7417 176.258 31.8917 171.758C40.0417 168.738 40.4617 166.408 34.2317 160.008C30.8117 156.498 28.7717 151.828 24.1417 149.258C20.8017 147.408 21.9617 145.038 24.7417 143.148C27.7317 141.118 30.6017 138.898 33.5217 136.758C36.2917 133.188 38.5417 129.198 41.1917 127.258C38.4617 129.608 34.2617 134.458 29.3917 130.478C25.0417 126.918 19.3217 122.268 23.6617 114.828C32.0417 99.5675 45.8117 89.9375 59.7117 80.4375C70.5617 79.4775 81.2117 81.9676 91.9917 82.1776C104.232 84.0776 115.692 80.7675 126.802 76.3875C134.022 73.5375 143.072 76.8475 148.912 69.6375C161.332 66.3675 174.032 65.6175 186.752 65.3775C213.902 64.8775 241.082 66.2275 268.212 64.3575C278.142 66.6275 288.242 65.5375 298.272 65.6275C306.672 65.7075 315.062 65.5375 323.072 68.6375C325.662 69.6375 328.592 70.1575 330.962 69.1675C340.042 65.3775 349.352 66.6975 358.532 67.6875C380.482 70.0475 402.672 67.7576 424.552 71.3976C431.462 72.5476 438.532 69.0775 445.472 71.7175C448.932 72.4475 452.372 73.2775 455.572 74.8875C462.542 84.2275 472.492 89.9375 481.642 96.6975C483.772 98.2775 488.892 99.4975 486.542 103.948C484.932 107.008 481.192 107.468 477.832 107.478C476.532 107.478 475.222 107.058 473.922 106.828C466.852 106.118 460.102 103.148 452.862 103.708C447.052 104.148 448.802 106.488 451.692 108.968C457.072 109.728 459.272 114.788 463.212 117.488C464.982 118.698 468.112 119.968 465.762 122.518C463.672 124.788 461.892 121.318 459.862 120.758C454.622 118.878 448.632 121.538 444.782 118.758C448.412 119.898 454.892 120.818 454.182 127.408C453.712 131.748 448.742 129.458 445.642 129.518C437.332 127.518 429.132 126.298 420.342 126.408C405.082 126.598 389.752 124.948 374.552 122.018C388.702 125.468 401.842 131.608 415.212 137.178L415.162 137.138C418.832 139.708 424.142 137.138 427.402 140.998L427.462 141.018C439.162 140.958 447.622 149.098 457.742 153.038Z" fill="#F4B309"/>
<path d="M269.442 66.6775C243.812 70.1375 218.052 67.5075 192.362 68.2175C177.042 68.6375 161.842 69.8975 146.812 72.8875C134.952 75.6575 122.952 77.8175 110.962 79.7175C104.412 80.7575 98.7517 84.5675 92.0617 84.4775C81.2317 83.3575 70.0217 85.3375 59.6717 80.4275C51.6617 76.7675 43.4417 82.1675 35.3317 79.8375C32.9117 79.1375 30.1817 79.5075 27.5917 79.4275C24.0317 79.3175 20.4417 78.1475 20.1917 74.4675C19.9517 71.0075 23.8317 70.6775 26.5817 69.5375C35.5717 65.8175 45.0517 64.0775 54.5117 62.2575C57.4117 61.6975 60.6517 62.4175 63.0817 59.1475C59.1317 55.8275 52.8517 56.2675 49.5317 51.2775C52.3817 46.6375 58.2917 49.1475 61.7717 46.2175C65.4017 43.0775 69.3917 40.9075 74.0617 41.3875C69.1317 40.2075 64.8017 44.8175 59.5917 43.9275C54.3817 44.8275 50.2217 42.1775 45.5017 39.0475C90.8417 19.5675 137.972 7.91752 187.112 4.20752C203.062 5.29752 219.012 6.31753 234.912 3.52753C262.672 0.647532 290.482 -0.762469 318.392 0.417531C321.092 3.27753 328.492 0.127524 327.832 5.09752C327.192 9.88752 320.712 8.57753 316.612 8.52753C309.372 8.43753 302.032 9.67753 294.882 7.41753C293.602 7.01753 295.302 7.22753 293.972 7.00753C294.162 7.87753 295.162 7.39753 295.642 7.97753C306.682 10.8175 317.972 7.80753 328.972 9.99753C344.622 12.5375 360.372 10.5275 376.052 11.1575C386.152 11.0575 396.272 10.8475 405.872 14.7975C411.042 15.5675 416.262 15.0875 421.452 15.3275C431.522 17.7875 442.492 16.0075 451.862 21.7675C462.052 24.0275 470.482 31.0475 481.062 33.5375C473.012 37.7075 464.242 32.6375 456.002 34.3675C454.192 37.6175 452.172 41.0575 447.832 40.2275C442.342 39.1875 438.352 42.4375 433.782 44.1575C429.592 45.1375 425.442 44.8675 421.292 43.9575C411.262 41.5375 400.982 42.7775 390.962 41.4775C390.492 42.7775 390.732 41.7575 391.232 41.8175C397.182 42.4475 403.152 41.9675 409.092 42.4575C423.912 44.8875 438.922 46.1475 453.582 49.5975C455.862 49.9075 457.782 51.1975 459.922 51.8875C462.502 52.8375 465.082 53.7875 467.662 54.7375C468.922 59.4475 463.302 61.9875 463.932 66.4975L463.842 66.5175C458.472 65.3875 452.752 62.4075 448.892 69.3375C443.922 70.5775 439.702 67.1975 434.962 67.0775C430.042 66.8975 425.542 65.1675 421.082 63.2975C417.592 62.8075 414.712 60.7075 411.052 60.1275C405.472 59.2475 403.042 60.9575 402.372 66.2075C397.892 71.7675 391.412 70.0475 385.772 70.2475C375.022 70.6275 364.332 68.8175 353.622 67.9275C346.562 67.3375 339.582 66.5775 332.692 69.0075C330.812 69.6675 328.662 70.0575 326.712 69.6075C309.412 65.6075 291.842 68.0475 274.412 67.3775C272.712 67.3275 271.022 67.4375 269.442 66.6775Z" fill="#CE1724"/>
<path d="M432.892 188.928C435.762 189.008 438.632 189.087 441.512 189.167C444.652 188.397 447.052 189.057 448.022 192.507C446.012 196.147 442.392 195.787 439.052 196.097C433.002 196.617 427.022 195.397 421.002 195.347C412.802 193.387 404.232 195.457 399.412 194.137C404.472 195.257 413.202 193.927 421.702 195.417C428.202 195.837 434.622 196.698 440.922 198.298C444.002 199.328 447.092 200.347 450.442 199.977C455.222 200.707 459.552 202.258 462.362 206.548C462.272 209.608 459.412 209.997 457.632 211.447C455.722 211.567 453.812 211.688 451.902 211.808C449.222 214.148 446.402 213.207 445.482 212.877C445.482 212.877 447.432 213.518 448.272 215.648C446.272 218.538 445.672 223.428 440.152 221.298C437.212 217.248 433.672 220.767 430.472 220.687C418.552 220.397 406.632 220.487 394.702 221.107C384.662 219.037 374.382 219.987 364.302 218.657C361.142 217.427 357.742 217.788 354.662 217.368C356.322 218.058 358.322 217.357 360.232 217.787C366.842 219.697 373.642 219.467 380.392 219.637C390.192 220.887 399.872 222.708 409.362 225.488C419.372 226.898 429.382 228.307 439.392 229.717C445.522 236.367 441.702 241.218 436.492 245.838C433.142 248.388 429.662 247.688 425.962 246.588C411.942 242.448 397.072 242.237 383.182 237.417C382.062 237.027 380.532 237.617 379.192 237.627C373.382 237.077 367.752 234.807 360.702 236.477C366.952 235.457 371.952 236.507 376.962 237.667C381.752 237.697 386.682 237.197 390.352 241.317C392.112 253.817 383.192 247.318 378.332 248.048C357.902 247.318 337.492 246.997 317.122 244.447C311.182 243.707 304.282 243.398 298.052 245.928C296.312 246.638 294.112 246.797 292.232 246.497C250.812 239.787 209.022 243.087 167.422 241.497C152.962 240.947 138.802 242.527 124.522 243.627C115.832 247.647 106.282 246.947 97.1417 248.227C91.2317 249.057 85.5217 250.228 79.8617 251.898C71.5417 252.478 63.4617 253.367 55.4117 248.997C48.8317 245.437 41.0517 249.887 33.8417 248.127C31.6117 247.577 29.1517 247.948 26.9017 247.458C25.0017 247.038 22.9117 246.177 23.0217 243.637C23.1017 241.697 24.7617 241.017 26.3117 240.347C30.9417 238.357 35.7317 237.307 40.7917 237.577C45.6317 237.837 49.9617 236.587 54.0417 232.567C46.9817 230.757 43.7017 225.588 41.6117 219.398C42.4717 213.628 47.3717 212.178 51.6917 210.798C90.8317 198.338 130.052 186.897 171.842 186.777C196.632 186.707 221.422 183.947 246.202 182.387C281.742 182.177 317.322 181.477 352.822 182.757C365.672 183.227 378.752 183.258 391.612 185.118C394.212 184.998 396.822 184.867 399.422 184.747C402.412 182.437 405.772 182.848 409.162 183.398C416.962 185.708 425.052 186.748 432.892 188.928Z" fill="#CE1824"/>
<path d="M294.492 8.11756C291.652 7.85756 288.812 7.59756 285.972 7.33756C286.012 6.92756 286.052 6.52756 286.082 6.11756C299.412 6.11756 312.752 6.11756 326.562 6.11756C324.692 2.18756 318.512 5.74757 318.362 0.437568C362.682 -0.962432 406.402 4.16756 449.792 12.6476C452.442 13.1676 451.302 14.8676 449.752 15.9776C446.082 19.3376 441.702 17.8476 437.532 17.7676C426.932 15.1276 416.042 16.6476 405.332 15.5376C390.002 10.2776 374.042 12.7276 358.362 11.6676C340.982 10.3276 323.572 10.0176 306.142 9.90757C302.212 9.88757 298.042 10.8676 294.492 8.11756Z" fill="#C61F23"/>
<path d="M447.412 191.538C445.442 190.748 443.472 189.968 441.502 189.178C444.732 181.868 452.682 176.208 448.952 166.438C448.182 164.418 451.142 163.538 452.872 162.608C457.752 159.988 458.772 165.588 461.862 166.768C461.682 168.978 456.212 171.228 461.732 173.338C465.742 174.868 466.392 179.398 469.682 181.458C472.212 186.168 474.742 190.888 477.272 195.598C478.722 198.808 476.092 198.848 474.522 198.448C472.252 197.868 470.042 197.768 467.762 197.788C467.282 197.398 466.732 197.238 466.112 197.298C463.972 196.158 462.312 193.718 459.332 194.768C455.222 194.198 450.872 194.488 447.412 191.538Z" fill="#EFBC31"/>
<path d="M437.762 249.108C436.202 247.928 442.612 243.348 435.752 244.418C440.322 240.348 441.462 235.428 439.392 229.718C447.312 229.748 455.092 230.868 462.662 233.128C466.992 234.418 465.732 235.638 462.262 236.258C460.132 238.028 456.782 237.178 455.032 239.648C455.402 241.348 457.292 242.858 455.652 244.758C450.142 248.068 442.882 244.178 437.762 249.108Z" fill="#CD3A40"/>
<path d="M388.962 241.838C397.412 242.768 405.822 243.828 413.652 247.478C414.002 249.668 413.232 250.738 410.892 250.238C399.702 254.578 389.192 248.738 378.332 248.058C381.552 245.458 390.432 252.458 388.962 241.838Z" fill="#CC4048"/>
<path d="M457.742 153.038C446.312 152.378 437.782 144.418 427.442 141.018Z" fill="#FBF9F0"/>
<path d="M435.102 41.6675C438.282 39.5975 441.242 36.6975 445.522 38.0975C450.072 39.5975 452.272 34.9475 455.982 34.3875C457.372 36.6975 461.082 35.4275 462.082 38.3275C462.212 40.5475 459.122 41.5875 459.982 44.0675C455.732 44.0475 451.472 44.0175 447.222 43.9975C446.202 45.3875 444.742 45.7875 443.102 45.7975C440.002 45.2675 436.802 44.8975 435.102 41.6675Z" fill="#CD5F65"/>
<path d="M469.692 181.448C465.002 180.168 463.192 173.828 457.192 174.558C455.752 174.728 453.852 172.808 454.562 171.068C455.802 168.038 458.922 167.358 461.872 166.758C465.952 166.788 468.742 172.328 473.502 169.458C475.012 169.598 477.502 169.258 475.632 171.898C473.572 174.798 469.712 171.868 466.872 174.178C467.782 176.538 468.742 178.998 469.692 181.448Z" fill="#F4DE97"/>
<path d="M234.892 3.54755C235.072 4.09755 235.262 4.65753 235.442 5.20753C219.302 5.75753 203.122 8.57754 187.092 4.22754C203.022 3.99754 218.962 3.76755 234.892 3.54755Z" fill="#B91B22"/>
<path d="M455.652 244.758C455.692 242.048 452.832 241.888 451.672 240.218C454.892 236.688 458.362 237.578 461.902 239.618C465.512 241.808 469.122 243.998 474.432 247.218C466.642 247.848 461.062 247.048 455.652 244.758Z" fill="#C43841"/>
<path d="M451.662 108.968C449.162 108.878 446.502 108.308 446.872 105.298C447.132 103.198 449.622 102.728 451.752 102.758C459.362 102.868 466.952 103.088 473.892 106.818C468.922 106.938 463.502 112.068 458.892 105.428C458.622 105.058 450.872 101.118 451.662 108.968Z" fill="#F3EFC2"/>
<path d="M462.172 207.208C463.242 206.898 464.322 206.598 465.392 206.288C469.682 208.848 475.412 206.758 480.462 211.558C472.232 214.238 464.872 211.648 457.622 211.458C459.142 210.038 460.662 208.618 462.172 207.208Z" fill="#B52621"/>
<path d="M434.922 64.4175C439.652 65.6175 444.382 66.8275 449.112 68.0275C450.972 67.1675 452.602 67.1875 453.732 69.1975C454.332 71.0975 454.922 72.9875 455.522 74.8875C452.632 78.3075 450.162 75.4875 447.582 74.3575C445.782 72.9575 443.502 72.3976 441.662 71.0576C438.592 69.6676 433.272 70.5675 434.922 64.4175Z" fill="#F4C6A9"/>
<path d="M427.382 141.008C422.562 142.058 418.282 141.408 415.142 137.148Z" fill="#FBF9F0"/>
<path d="M410.882 250.238C411.802 249.318 412.722 248.398 413.642 247.478C420.582 248.178 428.112 246.948 433.192 253.588C425.552 253.808 418.192 252.198 410.882 250.238Z" fill="#CE6C71"/>
<path d="M463.892 66.5075C460.772 61.2075 462.762 57.5275 467.622 54.7475C473.102 55.1975 477.212 56.3475 471.622 62.4975C470.332 64.7675 467.452 64.7775 465.822 66.5575C465.182 66.5375 464.542 66.5175 463.892 66.5075Z" fill="#D2514B"/>
<path d="M453.742 69.1875C452.202 68.7975 450.662 68.4075 449.122 68.0175C453.032 59.9875 456.182 59.6675 463.812 66.5175C461.502 71.3475 456.312 65.3675 453.742 69.1875Z" fill="#D2514B"/>
<path d="M442.872 43.5576C444.322 43.7076 445.772 43.8575 447.222 43.9975C450.702 47.8175 458.552 44.6476 459.882 51.8976C457.932 51.7976 455.972 51.6975 454.022 51.5975C449.412 50.1475 443.282 50.8176 442.872 43.5576Z" fill="#F2D8B8"/>
<path d="M465.832 66.5575C465.532 62.0175 468.882 62.6875 471.632 62.4975C473.592 63.9975 475.542 65.5075 478.372 67.6775C473.192 69.2475 469.492 68.1475 465.832 66.5575Z" fill="#B83028"/>
<path d="M461.912 239.618C458.502 239.818 455.092 240.018 451.682 240.218C449.622 238.188 448.982 236.198 452.722 235.878C455.872 235.608 459.082 236.108 462.272 236.268C462.142 237.378 462.022 238.498 461.912 239.618Z" fill="#DF9490"/>
<path d="M467.782 197.778C469.982 192.848 475.262 201.278 477.292 195.598C481.052 198.708 480.602 201.028 475.662 200.908C473.012 200.848 470.402 198.878 467.782 197.778Z" fill="#F6E8E1"/>
<path d="M448.262 215.638C446.012 214.688 443.772 213.728 439.242 211.808C445.122 211.808 448.502 211.808 451.892 211.808C453.072 215.338 451.832 216.588 448.262 215.638Z" fill="#EC9E7F"/>
<path d="M443.622 70.5175C445.072 71.6675 447.342 71.9575 447.582 74.3475C418.742 72.9675 389.902 71.4475 361.052 70.2875C351.022 69.8875 341.142 70.0175 330.912 71.4576C319.532 73.0676 307.422 68.1175 295.272 68.1875C286.702 68.2375 277.832 70.5375 269.442 66.6675C299.192 66.5875 328.982 65.7176 358.692 66.8076C370.662 67.2476 382.692 68.1076 394.712 68.4576C399.982 68.6076 401.462 66.7775 399.412 61.9975C404.282 59.2575 409.142 60.2175 414.012 62.0075C424.442 62.8975 433.542 68.4075 443.622 70.5175Z" fill="#CE391D"/>
<path d="M391.602 185.168C343.172 181.928 294.642 184.408 246.192 182.428C283.772 179.928 321.412 180.078 358.962 181.998C369.722 182.548 381.082 180.778 391.602 185.168Z" fill="#BC2118"/>
<path d="M385.302 177.048C381.622 174.008 378.782 169.098 372.592 172.258C369.512 173.828 368.012 170.257 365.702 169.407C359.402 167.087 352.872 165.358 346.202 163.328C354.592 159.888 360.752 162.178 367.692 163.768C374.522 165.328 381.932 172.098 389.812 165.058C392.202 162.918 396.142 161.298 397.202 167.058C393.352 170.528 388.772 173.128 385.302 177.048Z" fill="#F3C64B"/>
<path d="M92.0617 84.4875C108.932 74.1275 128.082 74.4975 146.812 72.8975C146.532 75.7175 144.042 77.8075 142.222 77.3875C129.442 74.4175 119.242 83.0075 107.532 84.8875C102.022 85.7675 97.2017 83.1975 92.0617 84.4875Z" fill="#E78822"/>
<path d="M415.352 181.277C411.232 177.557 405.872 176.938 400.852 175.488C396.152 174.128 393.452 172.048 397.242 167.108C398.292 165.568 399.342 164.028 401.492 160.878C400.272 172.848 414.912 171.437 415.352 181.277Z" fill="#F3C64B"/>
<path d="M409.002 185.738C411.732 184.868 415.162 186.438 417.282 183.388C422.332 185.678 430.122 180.258 432.892 188.928C424.572 190.518 416.822 187.848 409.002 185.738Z" fill="#F6D696"/>
<path d="M54.7517 118.967C56.9017 114.557 60.4217 113.608 64.4317 113.948C64.6617 113.968 65.1317 115.178 64.9417 115.618C62.8717 120.598 58.1017 117.747 54.7517 118.967Z" fill="#F5D156"/>
<path d="M294.492 8.11753C316.052 8.82753 337.712 5.96754 359.202 9.73754C354.832 13.9875 348.892 10.6475 344.092 12.8275C338.882 12.5775 333.562 14.0675 328.462 11.9075C319.402 11.7675 310.332 11.7575 301.282 11.3875C298.772 11.2875 294.722 13.3275 294.492 8.11753Z" fill="#E98D93"/>
<path d="M442.872 43.5575C444.882 48.5875 450.832 48.1875 454.022 51.5975C438.982 49.3875 423.762 48.3175 409.002 44.4075C412.052 38.0775 417.172 42.1975 421.432 41.9475C425.992 41.8575 430.552 41.7675 435.102 41.6675C437.692 42.2975 440.282 42.9275 442.872 43.5575Z" fill="#EB9120"/>
<path d="M421.432 41.9475C417.352 43.0475 412.522 40.4475 409.002 44.4075C402.252 43.7275 395.072 45.4175 387.042 39.9075C399.832 40.9475 410.722 38.7375 421.432 41.9475Z" fill="#EF8034"/>
<path d="M344.612 11.4375C355.432 13.1975 366.592 10.4575 377.302 13.8275C363.762 13.8775 350.232 13.9775 336.692 13.9475C333.832 13.9475 330.642 14.7975 328.462 11.8975C333.842 11.7475 339.232 11.5975 344.612 11.4375Z" fill="#B92225"/>
<path d="M443.622 70.5175C433.052 70.8975 423.862 64.8476 413.542 64.0876C414.202 58.6976 419.522 63.2375 421.382 60.4175C425.632 62.6375 429.922 64.7375 434.922 64.4175C435.452 69.8175 441.782 66.9875 443.622 70.5175Z" fill="#E89544"/>
<path d="M421.392 60.4075C419.692 63.5775 415.362 61.1675 413.542 64.0875C409.042 61.9575 404.132 62.6575 399.412 61.9975C406.052 52.0375 413.982 59.8075 421.392 60.4075Z" fill="#E6713F"/>
<path d="M328.432 191.068C302.222 191.068 276.002 191.068 249.792 191.068C276.002 190.928 302.082 183.668 328.382 189.448C329.082 189.788 329.312 190.138 329.102 190.498C328.872 190.878 328.652 191.068 328.432 191.068Z" fill="#E45F4C"/>
<path d="M421.452 197.258C410.342 196.318 399.232 195.378 388.122 194.448C388.192 193.328 388.262 192.208 388.332 191.088C398.812 193.398 409.362 190.748 419.842 193.588C420.832 194.608 422.522 195.328 421.452 197.258Z" fill="#E98A42"/>
<path d="M421.452 197.258C420.912 196.038 420.372 194.808 419.832 193.588C426.302 193.578 432.762 193.578 439.222 193.578C439.852 193.938 440.142 194.388 440.092 194.918C440.042 195.488 439.932 195.778 439.772 195.768C438.602 196.148 437.382 196.948 436.482 195.318C436.792 196.378 437.632 196.387 438.532 196.467C441.602 196.737 443.642 197.688 441.382 201.188C434.742 199.888 428.092 198.568 421.452 197.258Z" fill="#EAB0AD"/>
<path d="M378.982 235.778C377.752 237.018 376.512 238.248 375.282 239.488C369.122 235.988 361.572 239.828 353.922 235.608C363.332 233.508 371.162 234.138 378.982 235.778Z" fill="#E1535A"/>
<path d="M360.672 189.488C366.332 189.628 372.112 188.658 377.602 191.168C371.992 193.948 366.402 194.478 360.732 191.508C360.072 191.078 359.842 190.638 360.042 190.188C360.242 189.718 360.452 189.488 360.672 189.488Z" fill="#E25B2F"/>
<path d="M441.382 201.198C441.452 196.758 437.032 198.338 434.522 196.098C436.462 195.598 437.952 195.208 439.442 194.818C442.242 194.708 445.242 193.178 447.652 195.948C448.272 197.828 448.902 199.708 449.522 201.588C446.652 204.588 444.182 199.478 441.382 201.198Z" fill="#EDDBBA"/>
<path d="M360.672 189.488C360.752 190.158 360.772 190.827 360.722 191.497C349.962 191.357 339.192 191.218 328.432 191.078C328.442 190.538 328.422 189.998 328.372 189.458C339.142 189.468 349.902 189.478 360.672 189.488Z" fill="#E78045"/>
<path d="M447.652 195.948C444.922 195.578 442.182 195.198 439.452 194.818C439.462 194.388 439.392 193.968 439.232 193.568C441.942 192.798 445.242 194.407 447.422 191.527C452.152 190.877 456.612 192.028 461.002 193.598C457.222 198.198 451.912 194.108 447.652 195.948Z" fill="#C74A31"/>
<path d="M342.662 235.347C338.432 236.237 334.712 235.378 330.822 232.308C335.712 231.138 340.832 226.007 342.662 235.347Z" fill="#DB363D"/>
<path d="M49.1617 222.868C52.7417 219.228 57.0517 217.408 63.2417 217.898C58.8017 222.318 53.8617 222.128 49.1617 222.868Z" fill="#EB7745"/>
<path d="M362.972 217.288C361.602 218.038 360.232 218.788 358.862 219.538C355.962 219.588 352.992 220.358 349.672 218.588C353.992 214.228 358.412 215.178 362.972 217.288Z" fill="#E66467"/>
</svg>
